<?xml version="1.0" encoding="UTF-8"?><svg id="Layer_2" xmlns="http://www.w3.org/2000/svg" viewBox="0 0 162.96 279.8"><defs><style>.cls-1{fill:#020202;}</style></defs><g id="Layer_1-2"><g><path class="cls-1" d="m113.88,268.27c-10.15,12.05-26.97,14.8-41.48,7.56-10.22-5.1-17.04-13.27-21.06-23.84-4.54-11.96-8.57-24.08-11.75-36.49-2.54-9.91-4.7-19.91-6.67-29.95-2.71-13.82-6.04-27.47-10.79-40.74-.54-1.5-1.06-3.02-1.73-4.47-2.91-6.24-3.78-12.83-3.45-19.63.33-6.76,1.85-13.27,4.01-19.66.68-.69,1.06-1.49.97-2.47.69-1.74,1.39-3.49,2.08-5.23.77-.45,1.1-1.13,1.05-2.01,4.65-9.88,10.87-18.67,18.48-26.49.75-.18,1.21-.64,1.33-1.41,3.76-3.44,7.56-6.84,11.83-9.66,5.07-3.36,10.43-6.14,16.27-7.94,4.91-1.52,9.93-2.27,15.08-2.01,5.52.28,10.65,1.82,15.42,4.58,1.01,1.32,2.31,2.26,3.87,2.83,6.56,5.68,10.12,12.99,11.58,21.41,1.35,7.84.59,15.55-1.48,23.19-1.09,4.01-2.65,7.84-4.3,11.65-.66.51-1.01,1.18-1.08,2.01-.74,1.44-1.48,2.89-2.22,4.33-.78.43-1.16,1.08-1.08,1.99-.51,1.08-1.02,2.16-1.54,3.23-.7.34-1.03.9-.95,1.68-.58,1.17-1.15,2.33-1.73,3.5-.7.34-1.02.89-.96,1.67-.52,1.07-1.03,2.13-1.55,3.2-.68.5-1.04,1.17-1.1,2-2.1,4.47-4.14,8.97-5.63,13.7-2.97,9.39-3.16,18.8-.44,28.27,1.46,5.07,3.31,9.99,5.55,14.76,4.27,9.09,8.82,18.04,14.17,26.56,4.12,6.57,6.66,13.75,7.66,21.46.97,7.56.3,14.96-2.35,22.14-.71.64-1.08,1.43-1.1,2.39-.7,1.34-1.39,2.68-2.09,4.02-1.34,1-2.27,2.3-2.83,3.87Z"/><path class="cls-1" d="m103.71,3.28c8.72,6.82,12.05,21.18,7.16,30.86-4.51,8.93-14.63,10.57-22.02,3.78-7.51-6.9-10.28-21.73-3.75-31.85,5.18-8.01,12.97-7.18,18.62-2.8Z"/><path class="cls-1" d="m74.25,41c-3.95,3.31-8.2,3.55-12.69,1.22-.29-.7-.8-1.08-1.56-1.11-5.64-5.18-6.9-11.58-5.24-18.79.47-2.06,1.45-3.87,2.71-5.55,4.07-5.39,10.48-6,15.34-1.24,5.06,4.95,6.68,11.09,5.47,17.99-.22,1.24-.78,2.42-1.18,3.63-1.22,1.08-2.17,2.37-2.86,3.85Z"/><path class="cls-1" d="m52.26,53.03c-3.73,5.25-10.57,6.08-15.23,1.92-6.61-5.9-6.89-16.28-2.22-22.68,3.4-4.65,8.99-5.38,13.46-1.96,6.09,4.66,8.29,14.97,4.62,21.7-.23.42-.5.81-.63,1.02Z"/><path class="cls-1" d="m28.92,50.01c5.29,4.06,7.37,13.14,4.36,19.09-3.39,6.7-11.27,7.58-16.1,1.8-4.03-4.82-4.7-12.5-1.55-17.93.4-.68.86-1.34,1.38-1.94,3.3-3.77,7.83-4.15,11.91-1.02Z"/><path class="cls-1" d="m16.63,77.73c1.46,2.35,2.32,4.89,2.42,7.66.12,3.13-.59,6.01-2.72,8.43-2.69,3.06-6.87,3.77-10.4,1.75-7.16-4.09-8.05-16-1.52-20.99,2.34-1.78,4.97-2.13,7.64-.81,1.12.55,2.08,1.45,3.11,2.19.27.77.75,1.37,1.46,1.76Z"/><path class="cls-1" d="m113.88,268.27c.56-1.57,1.49-2.87,2.83-3.87-.45,1.65-1.4,2.93-2.83,3.87Z"/><path class="cls-1" d="m107.36,51.24c-1.56-.57-2.85-1.51-3.87-2.83,1.66.44,2.94,1.38,3.87,2.83Z"/><path class="cls-1" d="m74.25,41c.69-1.48,1.64-2.76,2.86-3.85-.34,1.74-1.28,3.03-2.86,3.85Z"/><path class="cls-1" d="m118.8,260.38c.02-.96.39-1.75,1.1-2.39.11,1.02-.33,1.78-1.1,2.39Z"/><path class="cls-1" d="m16.63,77.73c-.72-.4-1.2-.99-1.46-1.76.9.25,1.49.75,1.46,1.76Z"/><path class="cls-1" d="m44.9,63.44c-.13.77-.59,1.23-1.33,1.41.12-.78.56-1.25,1.33-1.41Z"/><path class="cls-1" d="m60,41.11c.77.02,1.27.41,1.56,1.11-.8.02-1.3-.37-1.56-1.11Z"/><path class="cls-1" d="m25.08,91.34c.05.88-.28,1.56-1.05,2.01.02-.84.38-1.51,1.05-2.01Z"/><path class="cls-1" d="m21.95,98.58c.09.99-.3,1.79-.97,2.47-.14-1.01.26-1.8.97-2.47Z"/><path class="cls-1" d="m100.95,131.1c.06-.84.42-1.51,1.1-2,.07.9-.31,1.57-1.1,2Z"/><path class="cls-1" d="m103.6,125.89c-.06-.78.26-1.33.96-1.67.07.78-.27,1.33-.96,1.67Z"/><path class="cls-1" d="m106.29,120.73c-.07-.78.25-1.34.95-1.68.06.77-.26,1.34-.95,1.68Z"/><path class="cls-1" d="m162.95,24.22c.08.77-.23,1.34-.91,1.71-.1-.79.22-1.35.91-1.71Z"/><path class="cls-1" d="m112.08,109.5c.06-.83.42-1.5,1.08-2.01.12.93-.29,1.57-1.08,2.01Z"/><path class="cls-1" d="m108.78,115.82c-.08-.9.3-1.55,1.08-1.99-.05.83-.41,1.49-1.08,1.99Z"/></g></g></svg>