<?xml version="1.0" encoding="UTF-8"?><svg id="Layer_2" xmlns="http://www.w3.org/2000/svg" viewBox="0 0 375.8 417.81"><defs><style>.cls-1{fill:#fff;}</style></defs><g id="Layer_1-2"><path class="cls-1" d="m284.83,65.44l-.03.12-3.99,12.98-8,27-15,46-9.44,33.97c-.4,1.43-1.56,2.52-3.02,2.81-2.42.48-4.2-.07-5.43-.8-1.35-.8-2.06-2.36-1.84-3.91l1.71-11.94.03-.25,1.99-24.88,2-33,4-39,3-25,1.94-22.28h0c.08-.9.05-1.8-.07-2.68l-.09-.63c-.73-5.13-2.33-10.08-4.48-14.8-1.05-2.3-1.28-4.17-4.24-5.93s-14.15-4.37-20.06-2.68c-5.84,1.67-10.29,7.51-11.6,9.41-.26.38-.45.79-.57,1.23l-4.25,16.15c-.39,1.48-.68,2.98-.87,4.5l-2.71,21.72-4,23-3,20-2,16-1,9-.92,8.31c-.05.46-.11.92-.19,1.37l-1.86,15.21c-.01.07-.03.14-.04.21l-.98,6.89-.98,9.81-.06.38-1.96,9.81s-1,5-3,6-4,1-6,1c-.2,0-.38,0-.56-.03-1.31-.13-2.44-.97-3.03-2.14-.27-.55-.41-1.15-.41-1.76v-4.86c0-.14-.02-.29-.02-.43l-.95-8.57-.02-.43v-7.78s0-10,0-10v-20s0-10,0-10v-8s0-7,0-7v-15s0-6,0-6v-14s0-8,0-8v-7s0-8.6,0-8.6c0-.92-.19-1.83-.55-2.68q-1.45-4.72-6.43-10.49c-1.37-1.65-1.78-1.51-3.63-2.56-2.54-1.43-5.39-2.23-8.31-2.23h-.16c-2.36-.26-4.74-.27-7.1-.03s-4.52.79-6.54,1.87c-2.4,1.28-4.51,3.03-6.2,5.14-1.37,1.72-2.46,3.64-3.24,5.69-1.22,3.25-2.02,6.64-2.38,10.09l-1.45,13.8-2,35-1,27-1,29-1,16-1,13-1,11-.98,10.79-.06.42-.25,1.26c-1.14,5.68-2.79,11.24-4.94,16.61-1.15,2.88-3.41,5.24-6.32,6.29-.73.26-1.54.48-2.44.63-4.77.8-8.91-.31-10.41-.79-.38-.12-.73-.3-1.05-.53l-6.55-4.68-9.86-6.9-.26-.2-.19-.16c-3.76-3.14-6.97-6.88-9.49-11.08l-2.19-3.65-4-7-2.53-4.42c-.88-1.55-1.88-3.03-3-4.41-2.16-2.65-4.56-5.09-7.18-7.28l-2.17-1.82c-.08-.04-.16-.09-.23-.14l-5.77-3.85-.23-.14-4.61-2.63-4.62-2.47h0c-3.37-1.68-4.46-1.82-10.07-2.57-1.28-.17-2.57-.26-3.86-.26h0c-1.15,0-2.3.1-3.43.28l-3.77.63c-1.34.22-2.64.69-3.74,1.48-1.58,1.12-2.87,2.61-3.71,4.35-.73,1.5-1.28,3.08-1.63,4.72-.61,2.84-.1,5.81,1.4,8.3.03.06.06.1.09.14.05.07.09.15.13.23l6.93,12.88,19,32,20.94,35.89.12.22,14.94,29.89,16,32,13.3,27.34c3.12,6.42,6.93,12.49,11.34,18.11h0c10.15,12.92,22.64,23.82,36.81,32.13h0c5.02,2.94,10.34,5.33,15.88,7.11h0c15.05,4.85,30.67,7.69,46.47,8.42l3.36.16c10.56-.15,21.1-.29,31.66-.43l2.45-.18c5.74-.43,11.3-2.19,16.24-5.15h0c13.15-7.89,24.91-17.89,34.81-29.59.13-.16.26-.32.38-.48h0c.68-.95,1.27-1.96,1.75-3.03l16.01-35.78.1-.24,12.96-34.88,10-31,29-83,8.21-20.89c1.86-4.72,3.19-9.64,3.97-14.65l1.1-7.06c1.06-6.85-1.8-13.86-7.63-17.59-1.83-1.17-3.89-2.05-6.14-2.3-6.53-.73-12.01,4.34-14.52,7.17-.83.94-1.55,1.96-2.17,3.05l-12.2,21.58-.19.39-25.22,59.17c-.47,1.11-1.42,1.94-2.58,2.25-2.49.68-7.03,1.41-11.11-.63-4.84-2.42-5.13-6.15-5.05-7.49.01-.27.06-.53.13-.79l12.92-47.72,19.97-80.86.08-.27c.49-1.49,2.9-15.87,1.96-23.43-.71-5.71-8.11-10.86-13.39-13.65-2.17-1.15-4.5-1.94-6.91-2.36l-2.81-.49c-2.88-.5-5.82.43-7.89,2.5h0c-4,4-6,9-7.73,14.31l-.24,1.16Z"/></g></svg>