<?xml version="1.0" encoding="UTF-8"?><svg id="Layer_2" xmlns="http://www.w3.org/2000/svg" viewBox="0 0 115.4 267.46"><defs><style>.cls-1{fill:#020202;}</style></defs><g id="Layer_1-2"><g><path class="cls-1" d="m63.39,50.48c11.29,7.32,20.58,16.64,27.96,27.87,4.59,6.99,8.22,14.43,10.46,22.51,2.44,8.82,2.91,17.63-.19,26.41-.68.6-.91,1.32-.61,2.19-1.05,5.61-2.11,11.23-3.16,16.84-.57.8-.79,1.66-.46,2.62-.58,5.15-1.15,10.29-1.73,15.44-.47.85-.65,1.73-.25,2.66-.93,9.58-1.86,19.17-2.79,28.75-.53.82-.62,1.69-.35,2.62-.18,1.44-.35,2.87-.53,4.31-.55.8-.77,1.66-.47,2.62-.94,5.32-1.88,10.63-2.82,15.95-.62.75-.84,1.6-.64,2.55-.17.86-.33,1.72-.5,2.59-.67.6-.9,1.32-.6,2.19-.92,3.72-1.61,7.51-2.8,11.14-3.55,10.82-10.33,19.05-20.62,24.05-9.77,4.75-19.74,5.02-29.52,0-7.1-3.64-11.92-9.51-15.04-16.78-3.5-8.16-4.15-16.67-2.89-25.38.18-1.26.46-2.51.69-3.77.59-.5.78-1.11.55-1.85.81-2.39,1.4-4.88,2.48-7.14,3.21-6.7,5.91-13.6,8.46-20.57.64-.44.87-1.03.7-1.79.56-1.73,1.13-3.46,1.69-5.18.77-.88,1.12-1.9,1.05-3.06l1-3.78c.61-.49.78-1.11.55-1.85.46-2.35.96-4.69,1.37-7.05,1.66-9.6.23-18.77-3.84-27.57-2.29-4.95-5.13-9.57-8.16-14.08-3.74-5.57-7.5-11.13-11.25-16.69-4.24-6.27-7.54-12.98-9.44-20.33-1.45-5.62-2.09-11.31-1.37-17.1,1.49-11.93,7.07-21.05,18.21-26.3.8.17,1.41-.12,1.9-.74,7.17-2.64,14.47-2.65,21.85-1.14,1.54.31,3.05.75,4.58,1.14.46.62,1.06.84,1.81.64,4.24,1.47,8.29,3.39,12.19,5.6.6.89,1.43,1.39,2.5,1.46Z"/><path class="cls-1" d="m27.68,31.62c-1.76,3.33-4.07,6.14-7.51,7.88-.82-.08-1.5.15-2.01.82-7.56,1.29-12.68-1.29-15.96-8.11C-.01,27.61-.43,22.74.38,17.75c.25-1.57.73-3.09,1.11-4.64,1.07-1.27,1.74-2.72,1.97-4.37,1.22-2.28,2.87-4.22,4.87-5.83,5.35-4.29,11.6-3.82,16.24,1.23,1.97,2.14,3.32,4.67,4.22,7.43,1.98,6.13,1.88,12.23-.32,18.29-.65.41-.9,1-.78,1.75Z"/><path class="cls-1" d="m39.92,37.27c-7.51-6.31-8.38-17.9-1.9-25.16,4.36-4.88,10.59-4.89,14.99-.02,5.27,5.83,5.75,16.03.92,22.17-2.89,3.67-6.68,5.32-11.4,4.2-.71-.76-1.58-1.15-2.62-1.19Z"/><path class="cls-1" d="m60.66,26.83c.78-1,1.45-2.1,2.35-2.98,3.85-3.8,8.85-3.81,12.75-.1,5.61,5.35,6.18,15.96,1.17,21.85-4.65,5.47-12.23,5.01-16.17-1.03-2.08-3.19-2.71-6.76-2.31-10.5.17-1.57.66-3.1,1-4.64.78-.69,1.21-1.55,1.23-2.6Z"/><path class="cls-1" d="m97.58,58.76c-.73,1.26-1.75,2.28-2.91,3.13-3.74,2.74-8.57,2.32-11.66-1.17-4.01-4.53-4.18-9.79-2.42-15.27.64-1.98,1.69-3.76,3.26-5.21,3.76-3.46,8.35-3.41,11.88.28,2.79,2.91,3.93,6.51,3.92,10.48,0,1.42-.34,2.84-.52,4.25-.88,1.01-1.39,2.18-1.56,3.5Z"/><path class="cls-1" d="m101.73,81.78c-4.84-3.85-5.4-8.85-3.86-14.42.8-.69,1.17-1.57,1.19-2.62.71-.85,1.32-1.81,2.14-2.53,3.53-3.08,7.81-2.74,10.96.78,3.4,3.8,4.27,10.23,1.87,14.73-1.97,3.68-5.01,5.64-9.31,5.28-.89-.68-1.87-1.11-2.99-1.23Z"/><path class="cls-1" d="m3.46,8.75c-.23,1.65-.9,3.1-1.97,4.37.07-1.72.73-3.18,1.97-4.37Z"/><path class="cls-1" d="m97.58,58.76c.17-1.32.68-2.5,1.56-3.5.06,1.43-.47,2.59-1.56,3.5Z"/><path class="cls-1" d="m63.39,50.48c-1.08-.08-1.91-.57-2.5-1.46,1.09.05,1.93.53,2.5,1.46Z"/><path class="cls-1" d="m60.66,26.83c-.01,1.05-.45,1.91-1.23,2.6-.08-1.1.34-1.96,1.23-2.6Z"/><path class="cls-1" d="m39.92,37.27c1.03.04,1.91.44,2.62,1.19-1.12.14-1.98-.27-2.62-1.19Z"/><path class="cls-1" d="m31.49,178.27c.06,1.16-.28,2.19-1.05,3.06-.16-1.19.23-2.2,1.05-3.06Z"/><path class="cls-1" d="m99.07,64.74c-.02,1.04-.4,1.93-1.19,2.62-.09-1.09.28-1.98,1.19-2.62Z"/><path class="cls-1" d="m101.73,81.78c1.12.11,2.1.55,2.99,1.23-1.25.21-2.23-.24-2.99-1.23Z"/><path class="cls-1" d="m86.73,228.6c-.3-.87-.07-1.59.6-2.19.15.83-.06,1.55-.6,2.19Z"/><path class="cls-1" d="m87.83,223.82c-.2-.95.02-1.8.64-2.55.26.97-.01,1.81-.64,2.55Z"/><path class="cls-1" d="m91.28,205.32c-.3-.95-.08-1.82.47-2.62.32.96.09,1.82-.47,2.62Z"/><path class="cls-1" d="m92.28,198.39c-.27-.92-.18-1.8.35-2.62.46.95.21,1.8-.35,2.62Z"/><path class="cls-1" d="m95.41,167.03c-.4-.93-.22-1.81.25-2.66.43.94.22,1.81-.25,2.66Z"/><path class="cls-1" d="m97.4,148.92c-.33-.96-.11-1.82.46-2.62.3.95.07,1.81-.46,2.62Z"/><path class="cls-1" d="m27.68,31.62c-.11-.75.14-1.34.78-1.75.16.77-.11,1.35-.78,1.75Z"/><path class="cls-1" d="m101.02,129.46c-.3-.87-.08-1.59.61-2.19.13.82-.07,1.55-.61,2.19Z"/><path class="cls-1" d="m48.7,43.42c-.75.19-1.35-.02-1.81-.64.75-.2,1.35.02,1.81.64Z"/><path class="cls-1" d="m33.04,172.65c.23.74.06,1.36-.55,1.85-.26-.75-.05-1.36.55-1.85Z"/><path class="cls-1" d="m28.74,186.52c.17.75-.05,1.35-.7,1.79-.17-.75.06-1.35.7-1.79Z"/></g></g></svg>